<svg width="420" height="260" viewBox="0 0 420 260" fill="none" xmlns="http://www.w3.org/2000/svg">
  <path d="M18 204C74 120 124 54 288 24C346 13 384 4 410 2C392 62 348 136 236 150C150 156 90 161 18 204Z" fill="url(#outer)"/>
  <path d="M104 136C170 86 244 92 350 62C320 108 280 136 190 142C154 144 128 142 104 136Z" fill="url(#mid)"/>
  <path d="M128 164C184 132 238 142 292 128C270 162 230 178 178 178C158 178 142 174 128 164Z" fill="url(#inner)"/>
  <defs>
    <linearGradient id="outer" x1="70" y1="40" x2="330" y2="214" gradientUnits="userSpaceOnUse">
      <stop stop-color="#34C4FF"/>
      <stop offset="0.46" stop-color="#1F8DE8"/>
      <stop offset="1" stop-color="#0A39A2"/>
    </linearGradient>
    <linearGradient id="mid" x1="134" y1="120" x2="336" y2="70" gradientUnits="userSpaceOnUse">
      <stop stop-color="#134CC0" stop-opacity="0.94"/>
      <stop offset="1" stop-color="#49CCFF" stop-opacity="0.97"/>
    </linearGradient>
    <linearGradient id="inner" x1="142" y1="176" x2="276" y2="124" gradientUnits="userSpaceOnUse">
      <stop stop-color="#0A3797" stop-opacity="0.92"/>
      <stop offset="1" stop-color="#2FAFFF" stop-opacity="0.92"/>
    </linearGradient>
  </defs>
</svg>